<svg xmlns="http://www.w3.org/2000/svg" viewBox="0 0 520 520"><defs><style>.cls-1{fill:#14181f;}.cls-2{fill:#ff705f;}</style></defs><title>favicon</title><g id="Layer_2" data-name="Layer 2"><g id="Uniform"><g id="separate_uniform_colored" data-name="separate uniform colored"><circle class="cls-1" cx="260" cy="260" r="260"/><path id="path8" class="cls-2" d="M433.4,131.11a7.65,7.65,0,0,0-5.16,2.39,280.58,280.58,0,0,1-105.52,69.3l-1.71.63a10,10,0,0,0-5.43,4.6,9.42,9.42,0,0,0-.75,7.2v0a4.65,4.65,0,0,0,1.5,2.24A88.15,88.15,0,0,1,342.86,256l.37,1.11.42,1.27a88.73,88.73,0,0,1-.08,53.55l-.42,1.28c-.17.49-.34,1-.5,1.45a88.64,88.64,0,0,1-48.35,51.56A242.4,242.4,0,0,1,260,358.6a242.4,242.4,0,0,1-34.3,7.66A88.63,88.63,0,0,1,182.28,326a87.54,87.54,0,0,1-4.93-11.28c-.17-.48-.34-1-.5-1.45s-.29-.85-.43-1.28a88.73,88.73,0,0,1-.07-53.55c.13-.42.27-.84.41-1.26l.37-1.11a88.42,88.42,0,0,1,26.53-38.55,4.74,4.74,0,0,0,1.51-2.24v0a9.46,9.46,0,0,0-.76-7.2,9.94,9.94,0,0,0-5.42-4.6l-1.72-.63A280.63,280.63,0,0,1,91.75,133.5,7.7,7.7,0,0,0,79,135.88c-.34.84-.68,1.68-1,2.53-8.66,22.09-12.5,46.16-13.42,71.31-3.11,84.7,78.28,192.13,129.22,216.91a2.48,2.48,0,0,0,2.57-.2A105.42,105.42,0,0,1,260,405.2h0a105.46,105.46,0,0,1,63.6,21.23,2.46,2.46,0,0,0,2.56.2c50.93-24.78,132.32-132.2,129.21-216.91-.92-25.14-4.76-49.22-13.42-71.31-.33-.85-.67-1.69-1-2.53A7.7,7.7,0,0,0,433.4,131.11Z"/><path id="path12" class="cls-2" d="M293,301.71l-.27-.47a33,33,0,0,1-28.49,37,30.8,30.8,0,0,1-4.7.27A33,33,0,1,1,280,279.28l-.1-.16H301a29.24,29.24,0,0,0-7.38,13.35,28.71,28.71,0,0,0-.67,9.24Z"/></g></g></g></svg>