<svg xmlns="http://www.w3.org/2000/svg" xmlns:xlink="http://www.w3.org/1999/xlink" viewBox="0 0 1272 916.33"><defs><style>.cls-1{fill:url(#Безымянный_градиент_6);}.cls-2{fill:#ff6f60;}.cls-3{fill:#ff7e70;}.cls-4{fill:#ff8f83;}.cls-5{fill:#ff9c92;}</style><linearGradient id="Безымянный_градиент_6" x1="649.13" y1="702.89" x2="649.13" y2="487.61" gradientUnits="userSpaceOnUse"><stop offset="0" stop-color="#ff9c92"/><stop offset="1" stop-color="#fe6f60"/></linearGradient></defs><title>vovan</title><g id="Layer_2" data-name="Layer 2"><g id="Рабочий_copy" data-name="Рабочий copy"><g id="Вован"><path class="cls-1" d="M742.76,581.43a107.68,107.68,0,1,1-41.39-71.69s45.59-.54,68.54-.54a95.51,95.51,0,0,0-24.09,43.56C742.92,564.8,742.76,581.43,742.76,581.43Z"/><path class="cls-2" d="M1211,239.33c-21.22,54.09-61,103.47-113.75,141.81a3.69,3.69,0,0,1-.75.42,797,797,0,0,1-183.89,54.38l-5.28,1-1-3a285.48,285.48,0,0,0-20.87-46.33,288.86,288.86,0,0,0-65.67-79.41,15.32,15.32,0,0,1-4.94-7.32s0,0,0-.05a30.83,30.83,0,0,1,2.46-23.5,32.57,32.57,0,0,1,17.75-15l5.59-2h0A915.83,915.83,0,0,0,1214.81,1.3a3.73,3.73,0,0,1,6.41,1.36l0,.06,1,3.39C1222.79,8,1252.78,133,1211,239.33Z"/><path class="cls-3" d="M187.75,603.86q5.76,2.85,11.54,5.39h0a602.89,602.89,0,0,0,124.35,12.89l5.52,0q3.42,0,6.83-.1l3.32-.08,3.48-.09c1.59-.05,3.17-.1,4.75-.17h.06c3.16-.13,6.3-.28,9.45-.45,1.57-.08,3.16-.18,4.73-.28l0,0,2.91-.44c-.47-1.4-.92-2.79-1.38-4.19a289.37,289.37,0,0,1-.25-174.71q.75-2.37,1.54-4.72s-4.16-.77-4.16-.79l-1.12-.2a797.63,797.63,0,0,1-184.29-54.55A794.92,794.92,0,0,1,76.9,330.5q-33.35-20.34-64.35-43.72c-3.62-2.71-7.21-5.48-10.78-8.26-.11.91-.27,2.21-.43,3.79C-11.77,405.94,73.1,547.26,187.75,603.86Z"/><path class="cls-3" d="M1084.24,603.86q-5.74,2.85-11.53,5.39h0a602.89,602.89,0,0,1-124.35,12.89c-1.85,0-3.68,0-5.52,0q-3.42,0-6.83-.1l-3.32-.08-3.48-.09c-1.59-.05-3.17-.1-4.75-.17h-.06q-4.74-.2-9.45-.45c-1.58-.08-3.16-.18-4.73-.28l0,0-2.91-.44c.47-1.4.92-2.79,1.37-4.19a289.3,289.3,0,0,0,.26-174.71q-.75-2.37-1.54-4.72l5.28-1a797.63,797.63,0,0,0,184.29-54.55,794.92,794.92,0,0,0,98.16-50.89q33.33-20.34,64.35-43.72c3.62-2.71,7.21-5.48,10.78-8.26.11.91.27,2.21.43,3.79C1283.77,405.94,1198.9,547.26,1084.24,603.86Z"/><path class="cls-2" d="M457.17,300.78s0,0,0,.05a15.39,15.39,0,0,1-4.94,7.32,288.43,288.43,0,0,0-86.55,125.74l-1,3-5.28-1a797,797,0,0,1-183.89-54.38,3.44,3.44,0,0,1-.75-.42C122,342.8,82.18,293.42,61,239.33,19.22,133,49.21,8,49.76,6.11l1-3.39a.14.14,0,0,0,0-.06A3.74,3.74,0,0,1,57.19,1.3,915.79,915.79,0,0,0,431.35,260.22h0l5.59,2a32.52,32.52,0,0,1,17.74,15A30.78,30.78,0,0,1,457.17,300.78Z"/><path class="cls-4" d="M1193.41,570c-3.82,1.7-7.65,3.38-11.51,5a596.6,596.6,0,0,1-109.19,34.22h0a602.89,602.89,0,0,1-124.35,12.89c-1.85,0-3.68,0-5.52,0q-3.42,0-6.83-.1l-3.32-.08-3.48-.09c-1.59-.05-3.17-.1-4.75-.17h-.06q-4.74-.2-9.45-.45c-1.58-.08-3.16-.18-4.73-.28l0,0-2.91-.44c-.53,1.58-1.08,3.15-1.63,4.73A289.28,289.28,0,0,1,889.58,662v0a288.75,288.75,0,0,1-47.41,66l0,0a289.14,289.14,0,0,1-85.2,61.37q32.38,2.72,65.59,2.76a772.47,772.47,0,0,0,178.38-20.7h0A382.41,382.41,0,0,0,1039.44,751a528.78,528.78,0,0,0,62.11-44.22,405,405,0,0,0,103.23-142C1201.37,566.39,1197.57,568.15,1193.41,570Z"/><path class="cls-5" d="M1000.91,771.46C950,836.6,878.39,887.51,794.74,916.32,748.35,891.11,694,876.6,636,876.6s-112.34,14.51-158.74,39.73C393.59,887.51,322,836.6,271.09,771.46a772.44,772.44,0,0,0,178.37,20.7A771.43,771.43,0,0,0,636,769.47a771.63,771.63,0,0,0,186.54,22.69A772.47,772.47,0,0,0,1000.91,771.46Z"/><path class="cls-4" d="M271.09,771.46a772.44,772.44,0,0,0,178.37,20.7q33.19,0,65.6-2.76A289,289,0,0,1,429.86,728l0,0a288.75,288.75,0,0,1-47.41-66v0a289.28,289.28,0,0,1-16.07-36.74c-.55-1.58-1.1-3.15-1.63-4.73l-2.91.44,0,0c-1.57.1-3.16.2-4.73.28-3.15.17-6.29.32-9.45.45h-.06c-1.58.07-3.16.12-4.75.17l-3.48.09L336,622q-3.4.07-6.83.1l-5.52,0A602.89,602.89,0,0,1,199.3,609.25h0A596.6,596.6,0,0,1,90.1,575c-3.86-1.63-7.69-3.31-11.51-5-4.16-1.87-8-3.63-11.37-5.24a405,405,0,0,0,103.23,142A528.78,528.78,0,0,0,232.56,751a382.41,382.41,0,0,0,38.53,20.48Z"/></g></g></g></svg>