<svg xmlns="http://www.w3.org/2000/svg" viewBox="0 0 1248.76 242.71"><defs><style>.cls-1{fill:#ff6f60;}</style></defs><title>word-logo</title><g id="Layer_2" data-name="Layer 2"><g id="Рабочий_copy" data-name="Рабочий copy"><path d="M11.18,101.92A79.55,79.55,0,0,1,42.12,69.68Q61.88,58.34,87.48,58.34q32.4,0,53.63,15.39t28.67,43.91H129.93A42.19,42.19,0,0,0,114.38,96.9q-10.69-7.45-26.9-7.45-22.68,0-36.12,16T37.91,150.36q0,28.84,13.45,45t36.12,16.2q32.08,0,42.45-28.19h39.85q-7.77,27.22-29.16,43.26t-53.14,16q-25.59,0-45.36-11.51a80.53,80.53,0,0,1-30.94-32.4Q0,177.91,0,150.36T11.18,101.92Z"/><path d="M238.47,231.2a82.61,82.61,0,0,1-32.08-32.4q-11.65-20.9-11.66-48.44,0-27.21,12-48.28a82.87,82.87,0,0,1,32.72-32.4q20.73-11.34,46.34-11.34t46.33,11.34a83,83,0,0,1,32.73,32.4q12,21.08,12,48.28t-12.31,48.28A85.25,85.25,0,0,1,331,231.2a96.66,96.66,0,0,1-46.82,11.51Q258.89,242.71,238.47,231.2Zm72.42-27.38q12.47-6.8,20.25-20.41t7.77-33q0-19.44-7.45-32.89A50.41,50.41,0,0,0,311.7,97.22a54.13,54.13,0,0,0-26.57-6.8,53.2,53.2,0,0,0-26.41,6.8,48.61,48.61,0,0,0-19.28,20.25q-7.12,13.46-7.13,32.89,0,28.84,14.75,44.55t37.1,15.72A55,55,0,0,0,310.89,203.82Z"/><path d="M412.3,102.08a81.46,81.46,0,0,1,73.39-43.74A83.65,83.65,0,0,1,520.19,66q17,7.61,27.06,20.25V0h37.26V239.79H547.25V212.9q-9.07,13-25.11,21.38t-36.78,8.43a79.82,79.82,0,0,1-42.6-11.83q-19.29-11.82-30.46-33t-11.18-48.12Q401.12,122.83,412.3,102.08Zm127.34,16.2a53.45,53.45,0,0,0-19.93-20.73,52.18,52.18,0,0,0-26.57-7.13,52.41,52.41,0,0,0-46.5,27.38Q439,131.24,439,149.71t7.61,32.4a53.73,53.73,0,0,0,20.09,21.23,51.54,51.54,0,0,0,26.41,7.29,52.18,52.18,0,0,0,26.57-7.13q12.31-7.12,19.93-20.9t7.61-32.24Q547.25,131.9,539.64,118.28Z"/><path d="M795.44,164.29H659q1.62,21.39,15.88,34.35t35,13q29.8,0,42.12-24.95h39.86A80.44,80.44,0,0,1,762.55,227q-21.22,15.72-52.65,15.72-25.59,0-45.85-11.51a81.8,81.8,0,0,1-31.75-32.4q-11.5-20.9-11.5-48.44T632,101.92a78.62,78.62,0,0,1,31.43-32.24q20.24-11.34,46.49-11.34,25.27,0,45,11a77.91,77.91,0,0,1,30.78,30.94q11,19.94,11,45.85A115.75,115.75,0,0,1,795.44,164.29Zm-37.26-29.81q-.33-20.4-14.58-32.72T708.28,89.45q-19.12,0-32.72,12.15t-16.2,32.88Z"/><path class="cls-1" d="M1248.76,0C1245.62,6.33,1235,26.13,1214,38.64c-16.38,9.79-34.36,12.29-38.55,12.82l-.69.08-83.1,188.25h-48.18l-21.32-47.56-17.34-46.18-17.33,46.18-21.62,47.56H917.73L811.89,0H865L930,154.8l15,37.43,11.81-37.43,23.94-56.45L937.68,0h50l17.63,46.78L1021.74,0h50l-43.11,98.33L1053,156l14.72,36.2,11.35-36.81L1144.46,0h51.14Z"/></g></g></svg>